<svg xmlns="http://www.w3.org/2000/svg" width="20" height="19" viewBox="0 0 20 19">
    <g fill="none" fill-rule="evenodd">
        <g fill="#8895AE" fill-rule="nonzero">
            <g>
                <g>
                    <path d="M24 11h-2.18c.11-.31.18-.65.18-1 0-1.66-1.34-3-3-3-1.05 0-1.96.54-2.5 1.35l-.5.67-.5-.68C14.96 7.54 14.05 7 13 7c-1.66 0-3 1.34-3 3 0 .35.07.69.18 1H8c-1.11 0-1.99.89-1.99 2L6 24c0 1.11.89 2 2 2h16c1.11 0 2-.89 2-2V13c0-1.11-.89-2-2-2zm-5-2c.55 0 1 .45 1 1s-.45 1-1 1-1-.45-1-1 .45-1 1-1zm-6 0c.55 0 1 .45 1 1s-.45 1-1 1-1-.45-1-1 .45-1 1-1zm11 15H8v-2h16v2zm0-5H8v-6h5.08L11 15.83 12.62 17 15 13.76l1-1.36 1 1.36L19.38 17 21 15.83 18.92 13H24v6z" transform="translate(-33 -711) translate(27 704)"/>
                </g>
            </g>
        </g>
    </g>
</svg>
