<svg xmlns="http://www.w3.org/2000/svg" width="19" height="19" viewBox="0 0 19 19">
    <g fill="none" fill-rule="evenodd">
        <g fill="#8895AE" fill-rule="nonzero">
            <g>
                <g>
                    <path d="M25.472 7l-.169.032-5.636 2.185L13.333 7 7.38 9.006c-.222.073-.38.263-.38.506v15.96c0 .296.232.528.528.528l.169-.032 5.636-2.185L19.667 26l5.953-2.006c.222-.073.38-.263.38-.506V7.528c0-.296-.232-.528-.528-.528zM14.39 9.607l4.222 1.478v12.308l-4.222-1.478V9.607zM9.11 10.652l3.167-1.066v12.35L9.11 23.161V10.652zM23.89 22.348l-3.167 1.066v-12.34L23.89 9.85v12.498z" transform="translate(-34 -775) translate(27 768)"/>
                </g>
            </g>
        </g>
    </g>
</svg>
