<svg xmlns="http://www.w3.org/2000/svg" width="20" height="19" viewBox="0 0 20 19">
    <g fill="none" fill-rule="evenodd">
        <g fill="#8895AE" fill-rule="nonzero">
            <g>
                <g>
                    <g>
                        <g>
                            <path d="M25.09 13.686h-4.354l-3.981-6.284C16.582 7.134 16.29 7 16 7c-.29 0-.582.134-.755.412l-3.981 6.274H6.909c-.5 0-.909.432-.909.958 0 .087.01.173.036.26l2.31 8.88c.209.804.909 1.398 1.745 1.398h11.818c.836 0 1.536-.594 1.755-1.399l2.309-8.88.027-.259c0-.526-.41-.958-.91-.958zM16 9.663l2.545 4.023h-5.09L16 9.663zm5.91 13.603l-11.81.01-2-7.674h15.81l-2 7.664zM16 17.518c-1 0-1.818.862-1.818 1.916 0 1.054.818 1.916 1.818 1.916s1.818-.862 1.818-1.916c0-1.054-.818-1.916-1.818-1.916z" transform="translate(-33 -199) translate(27 192)"/>
                        </g>
                    </g>
                </g>
            </g>
        </g>
    </g>
</svg>
