<svg xmlns="http://www.w3.org/2000/svg" width="20" height="18" viewBox="0 0 20 18">
    <g fill="none" fill-rule="evenodd">
        <g fill="#8895AE" fill-rule="nonzero">
            <g>
                <g>
                    <path d="M25.901 12.89l-1.05-4.37c-.22-.9-1-1.52-1.91-1.52H9.045c-.9 0-1.69.63-1.901 1.52l-1.05 4.37c-.24 1.02-.02 2.06.62 2.88.08.11.19.19.28.29V23c0 1.1.9 2 2 2H23c1.1 0 2-.9 2-2v-6.94c.09-.09.2-.18.28-.28.641-.82.871-1.87.621-2.89zm-2.99-3.9l1.05 4.37c.1.42.01.84-.25 1.17-.14.18-.44.47-.941.47-.61 0-1.14-.49-1.21-1.14L20.98 9l1.93-.01zM16.997 9h1.96l.541 4.52c.05.39-.07.78-.33 1.07-.22.26-.54.41-.95.41-.67 0-1.22-.59-1.22-1.31V9zm-4.511 4.52l.55-4.52h1.96v4.69c0 .72-.55 1.31-1.29 1.31-.34 0-.65-.15-.89-.41-.25-.29-.37-.68-.33-1.07zm-4.452-.16L9.045 9h1.971l-.58 4.86c-.08.65-.6 1.14-1.21 1.14-.49 0-.8-.29-.93-.47-.27-.32-.36-.75-.26-1.17zm.96 9.64v-6.03c.08.01.15.03.23.03.871 0 1.661-.36 2.241-.95.6.6 1.4.95 2.311.95.87 0 1.65-.36 2.23-.93.591.57 1.391.93 2.292.93.84 0 1.64-.35 2.24-.95.58.59 1.37.95 2.241.95.08 0 .15-.02.23-.03V23H8.996z" transform="translate(-33 -455) translate(27 448)"/>
                </g>
            </g>
        </g>
    </g>
</svg>
