<svg xmlns="http://www.w3.org/2000/svg" width="20" height="20" viewBox="0 0 20 20">
    <g fill="none" fill-rule="evenodd">
        <g fill="#8895AE" fill-rule="nonzero">
            <g>
                <g>
                    <path d="M24.937 12.4l-5.655-.49-2.209-5.2c-.397-.947-1.752-.947-2.15 0l-2.208 5.211-5.644.48c-1.028.08-1.448 1.366-.666 2.044l4.289 3.716-1.286 5.515c-.233 1.004.853 1.799 1.741 1.261l4.85-2.92 4.848 2.932c.888.538 1.975-.257 1.741-1.262l-1.285-5.526 4.288-3.716c.783-.678.374-1.963-.654-2.045zm-8.939 7.431l-4.393 2.653 1.168-5.001-3.879-3.365 5.118-.444 1.986-4.71 1.998 4.721 5.118.444-3.88 3.366 1.17 5-4.406-2.664z" transform="translate(-33 -646) translate(27 640)"/>
                </g>
            </g>
        </g>
    </g>
</svg>
