<svg xmlns="http://www.w3.org/2000/svg" width="20" height="21" viewBox="0 0 20 21">
    <g fill="none" fill-rule="evenodd">
        <g fill="#8895AE" fill-rule="nonzero">
            <g>
                <g>
                    <g>
                        <path d="M25.09 8.654h-3.562v-2.74c0-.503-.41-.914-.913-.914-.502 0-.913.411-.913.913v2.74h-3.563c-.539 0-.959.467-.913 1.006l.11 1.105c3.36.776 6.192 3.16 6.192 7.024l.019 7.308H23.1c.767 0 1.397-.594 1.488-1.343l1.407-14.094c.055-.54-.365-1.005-.904-1.005zm-6.302 14.615H6.913c-.502 0-.913.41-.913.913 0 .503.411.914.913.914h11.875c.503 0 .914-.411.914-.914 0-.502-.411-.913-.914-.913zm-11.783-5.48h11.692c.566 0 1.014-.512.904-1.06-.594-2.95-3.672-4.43-6.75-4.43s-6.148 1.48-6.75 4.43c-.11.548.347 1.06.904 1.06zm11.783 1.826H6.913c-.502 0-.913.411-.913.913 0 .503.411.914.913.914h11.875c.503 0 .914-.411.914-.914 0-.502-.411-.913-.914-.913z" transform="translate(-33 -389) translate(27 384)"/>
                    </g>
                </g>
            </g>
        </g>
    </g>
</svg>
